<?xml version="1.0" encoding="utf-8"?>
<!-- Generator: Adobe Illustrator 21.0.2, SVG Export Plug-In . SVG Version: 6.00 Build 0)  -->
<!DOCTYPE svg PUBLIC "-//W3C//DTD SVG 1.1//EN" "http://www.w3.org/Graphics/SVG/1.1/DTD/svg11.dtd">
<svg version="1.1" id="Layer_1" xmlns="http://www.w3.org/2000/svg" xmlns:xlink="http://www.w3.org/1999/xlink" x="0px" y="0px"
	 width="839.7px" height="286.3px" viewBox="0 0 839.7 286.3" style="enable-background:new 0 0 839.7 286.3;" xml:space="preserve"
	>
<style type="text/css">
	.st0{fill:#0049B0;}
	.st1{enable-background:new    ;}
	.st2{fill:#FFFFFF;}
	.st3{fill:#FFE380;}
	.st4{fill:#091E42;}
	.st5{fill:#79F2C0;}
	.st6{fill:none;stroke:#DFE1E5;stroke-width:2;stroke-miterlimit:10;}
	.st7{fill:#DFE1E5;}
</style>
<g>
	<path class="st0" d="M1.2,60.6v19.1c0,2.8,2.2,5,5,5h59.6c2.8,0,5-2.2,5-5V60.6c0-2.8-2.2-5-5-5H6.2C3.4,55.6,1.2,57.8,1.2,60.6z"
		/>
	<g class="st1">
		<path class="st2" d="M21.7,64.8c2.9,0,5.5,2.1,5.5,5.5c0,3.4-2.6,5.5-5.5,5.5s-5.5-2.1-5.5-5.5C16.2,66.9,18.8,64.8,21.7,64.8z
			 M21.7,73.9c1.6,0,3.3-1.1,3.3-3.5c0-2.4-1.7-3.5-3.3-3.5c-1.6,0-3.3,1.1-3.3,3.5C18.4,72.7,20,73.9,21.7,73.9z"/>
		<path class="st2" d="M31,71.6v4h-2.1V65h4c2.1,0,3.5,1.4,3.5,3.3s-1.4,3.3-3.5,3.3H31z M32.7,69.9c1,0,1.7-0.6,1.7-1.5
			s-0.6-1.5-1.7-1.5h-1.6v3H32.7z"/>
		<path class="st2" d="M38,75.6V65h6.7v2h-4.6v2.4h4.2v1.8h-4.2v2.5h4.6v2L38,75.6L38,75.6z"/>
		<path class="st2" d="M53.6,75.6l-4.8-7.5v7.5h-2.1V65h2.6l4.4,7v-7h2.1v10.6H53.6z"/>
	</g>
</g>
<g>
	<path class="st3" d="M171.4,110.8v19.1c0,2.8,2.2,5,5,5H300c2.8,0,5-2.2,5-5v-19.1c0-2.8-2.2-5-5-5H176.4
		C173.7,105.8,171.4,108,171.4,110.8z"/>
	<g class="st1">
		<path class="st4" d="M190,125.8v-10.6h2.1v10.6H190z"/>
		<path class="st4" d="M201.4,125.8l-4.8-7.5v7.5h-2.1v-10.6h2.6l4.4,7v-7h2.1v10.6H201.4z"/>
		<path class="st4" d="M211.8,121.8v4h-2.1v-10.6h4c2.1,0,3.5,1.4,3.5,3.3c0,1.9-1.4,3.3-3.5,3.3H211.8z M213.5,120
			c1,0,1.7-0.6,1.7-1.5s-0.6-1.5-1.7-1.5h-1.6v3H213.5z"/>
		<path class="st4" d="M222,121.7h-1.1v4.1h-2.1v-10.6h4.2c2.1,0,3.4,1.4,3.4,3.3c0,1.5-0.9,2.6-2.3,3l2.3,4.3h-2.3L222,121.7z
			 M222.6,119.9c1,0,1.7-0.6,1.7-1.5s-0.6-1.5-1.7-1.5h-1.7v3H222.6z"/>
		<path class="st4" d="M232.9,114.9c2.9,0,5.5,2.1,5.5,5.5s-2.6,5.5-5.5,5.5s-5.5-2.1-5.5-5.5C227.5,117.1,230,114.9,232.9,114.9z
			 M232.9,124c1.7,0,3.3-1.1,3.3-3.5s-1.7-3.5-3.3-3.5c-1.6,0-3.3,1.1-3.3,3.5C229.6,122.9,231.3,124,232.9,124z"/>
		<path class="st4" d="M248.2,125.8l-0.1-1.2c-0.5,0.7-1.5,1.4-3.1,1.4c-2.9,0-5.3-2.1-5.3-5.5s2.6-5.5,5.4-5.5s4.3,1.6,4.9,3.3
			l-2,0.7c-0.3-0.9-1.2-2-2.9-2c-1.6,0-3.3,1.1-3.3,3.6c0,2.4,1.6,3.6,3.4,3.6c2,0,2.7-1.3,2.8-2.1h-3.4v-1.8h5.3v5.5H248.2z"/>
		<path class="st4" d="M255.1,121.7H254v4.1h-2.1v-10.6h4.2c2.1,0,3.4,1.4,3.4,3.3c0,1.5-0.9,2.6-2.3,3l2.3,4.3h-2.3L255.1,121.7z
			 M255.7,119.9c1,0,1.7-0.6,1.7-1.5s-0.6-1.5-1.7-1.5H254v3H255.7z"/>
		<path class="st4" d="M261.3,125.8v-10.6h6.7v2h-4.6v2.4h4.2v1.8h-4.2v2.5h4.6v2L261.3,125.8L261.3,125.8z"/>
		<path class="st4" d="M275.3,118.3c-0.1-0.6-0.6-1.5-1.9-1.5c-1,0-1.7,0.6-1.7,1.3c0,0.6,0.4,1,1.2,1.2l1.5,0.3
			c1.9,0.4,3,1.6,3,3.1c0,1.6-1.4,3.3-3.8,3.3c-2.8,0-4.1-1.8-4.2-3.3l1.9-0.5c0.1,1.1,0.8,2,2.3,2c1.1,0,1.7-0.6,1.7-1.3
			c0-0.6-0.5-1.1-1.3-1.3l-1.5-0.3c-1.7-0.3-2.8-1.4-2.8-3c0-1.9,1.7-3.3,3.7-3.3c2.6,0,3.6,1.6,3.8,2.8L275.3,118.3z"/>
		<path class="st4" d="M284.4,118.3c-0.1-0.6-0.6-1.5-1.9-1.5c-1,0-1.7,0.6-1.7,1.3c0,0.6,0.4,1,1.2,1.2l1.5,0.3
			c1.9,0.4,3,1.6,3,3.1c0,1.6-1.4,3.3-3.8,3.3c-2.8,0-4.1-1.8-4.2-3.3l1.9-0.5c0.1,1.1,0.8,2,2.3,2c1.1,0,1.7-0.6,1.7-1.3
			c0-0.6-0.5-1.1-1.3-1.3l-1.5-0.3c-1.7-0.3-2.8-1.4-2.8-3c0-1.9,1.7-3.3,3.7-3.3c2.6,0,3.6,1.6,3.8,2.8L284.4,118.3z"/>
	</g>
</g>
<g>
	<path class="st5" d="M764.2,260.6v19.1c0,2.8,2.2,5,5,5h64.2c2.8,0,5-2.2,5-5v-19.1c0-2.8-2.2-5-5-5h-64.2
		C766.5,255.6,764.2,257.9,764.2,260.6z"/>
	<g class="st1">
		<path class="st4" d="M780.7,275.7V265h3.8c3,0,5.2,2,5.2,5.3c0,3.4-2.2,5.3-5.3,5.3h-3.7V275.7z M784.5,273.7
			c1.7,0,3.2-1.1,3.2-3.4s-1.4-3.4-3.2-3.4h-1.7v6.8H784.5z"/>
		<path class="st4" d="M796.4,264.8c2.9,0,5.5,2.1,5.5,5.5s-2.6,5.5-5.5,5.5s-5.5-2.1-5.5-5.5C791,266.9,793.5,264.8,796.4,264.8z
			 M796.4,273.9c1.6,0,3.3-1.1,3.3-3.5s-1.7-3.5-3.3-3.5s-3.3,1.1-3.3,3.5C793.1,272.7,794.8,273.9,796.4,273.9z"/>
		<path class="st4" d="M810.6,275.7l-4.8-7.5v7.5h-2.1V265h2.6l4.4,7v-7h2.1v10.6h-2.2V275.7z"/>
		<path class="st4" d="M815.2,275.7V265h6.7v2h-4.6v2.4h4.2v1.8h-4.2v2.5h4.6v2L815.2,275.7L815.2,275.7z"/>
	</g>
</g>
<g>
	<g>
		<path class="st6" d="M76.7,70.1h156.5c2.8,0,5,2.2,5,5v17.1"/>
		<g>
			<polygon class="st7" points="233.2,90.8 238.2,99.4 243.2,90.8 			"/>
		</g>
	</g>
</g>
<g>
	<g>
		<path class="st6" d="M311,120.1h121.8c2.8,0,5,2.2,5,5v17.4"/>
		<g>
			<polygon class="st7" points="432.8,141.1 437.8,149.8 442.8,141.1 			"/>
		</g>
	</g>
</g>
<g>
	<path class="st3" d="M363.5,160.9V180c0,2.8,2.2,5,5,5h138.6c2.8,0,5-2.2,5-5v-19.1c0-2.8-2.2-5-5-5H368.5
		C365.7,155.9,363.5,158.1,363.5,160.9z"/>
	<g class="st1">
		<path class="st4" d="M382.6,171.9V165h2.1v6.7c0,1.4,0.8,2.1,2,2.1c1.3,0,2-0.7,2-2.1V165h2.1v6.9c0,2.6-1.8,4-4.1,4
			C384.4,175.9,382.6,174.5,382.6,171.9z"/>
		<path class="st4" d="M400,175.7l-4.8-7.5v7.5h-2.1V165h2.6l4.4,7v-7h2.1v10.6L400,175.7L400,175.7z"/>
		<path class="st4" d="M404.6,175.7V165h3.8c3,0,5.2,2,5.2,5.3c0,3.4-2.2,5.3-5.3,5.3L404.6,175.7L404.6,175.7z M408.3,173.7
			c1.7,0,3.2-1.1,3.2-3.4c0-2.3-1.4-3.4-3.2-3.4h-1.6v6.8L408.3,173.7L408.3,173.7z"/>
		<path class="st4" d="M415.4,175.7V165h6.7v2h-4.6v2.4h4.2v1.8h-4.2v2.5h4.6v2H415.4z"/>
		<path class="st4" d="M427.3,171.6h-1.1v4.1h-2.1V165h4.2c2.1,0,3.4,1.4,3.4,3.3c0,1.5-0.9,2.6-2.3,3l2.3,4.3h-2.3L427.3,171.6z
			 M427.9,169.8c1,0,1.7-0.6,1.7-1.5s-0.6-1.5-1.7-1.5h-1.7v3H427.9z"/>
		<path class="st4" d="M440.4,171.6h-1.1v4.1h-2.1V165h4.2c2.1,0,3.4,1.4,3.4,3.3c0,1.5-0.9,2.6-2.3,3l2.3,4.3h-2.3L440.4,171.6z
			 M441,169.8c1,0,1.7-0.6,1.7-1.5s-0.6-1.5-1.7-1.5h-1.7v3H441z"/>
		<path class="st4" d="M446.6,175.7V165h6.7v2h-4.6v2.4h4.2v1.8h-4.2v2.5h4.6v2H446.6z"/>
		<path class="st4" d="M462.2,165h2.2l-3.9,10.6h-2.1l-3.9-10.6h2.3l2.8,7.9L462.2,165z"/>
		<path class="st4" d="M465.7,175.7V165h2.1v10.6L465.7,175.7L465.7,175.7z"/>
		<path class="st4" d="M470.2,175.7V165h6.7v2h-4.6v2.4h4.2v1.8h-4.2v2.5h4.6v2H470.2z"/>
		<path class="st4" d="M490.9,165h2.1l-2.9,10.6H488l-2.4-7.6l-2.4,7.6H481l-3-10.6h2.2l1.9,7.3l2.4-7.3h2.1l2.4,7.3L490.9,165z"/>
	</g>
</g>
<g>
	<path class="st3" d="M597.2,211v19.1c0,2.8,2.2,5,5,5h145.2c2.8,0,5-2.2,5-5V211c0-2.8-2.2-5-5-5H602.2
		C599.5,206,597.2,208.3,597.2,211z"/>
	<g class="st1">
		<path class="st4" d="M612.6,226.1v-10.6h6.7v2h-4.6v2.6h4.1v1.9h-4.1v4.1H612.6z"/>
		<path class="st4" d="M621,226.1v-10.6h2.1v10.6H621z"/>
		<path class="st4" d="M632.5,226.1l-4.8-7.5v7.5h-2.1v-10.6h2.6l4.4,7v-7h2.1v10.6H632.5z"/>
		<path class="st4" d="M643.4,223.6h-4.3l-0.9,2.4H636l4.1-10.6h2.4l4,10.6h-2.2L643.4,223.6z M639.8,221.8h2.9l-1.5-4L639.8,221.8z
			"/>
		<path class="st4" d="M647.9,226.1v-10.6h2.1v8.7h4.7v2h-6.8V226.1z"/>
		<path class="st4" d="M666.3,223.6H662l-0.9,2.4h-2.2l4.1-10.6h2.4l4,10.6h-2.2L666.3,223.6z M662.7,221.8h2.9l-1.5-4L662.7,221.8z
			"/>
		<path class="st4" d="M672.9,222.1v4h-2.1v-10.6h4c2.1,0,3.5,1.4,3.5,3.3s-1.4,3.3-3.5,3.3L672.9,222.1L672.9,222.1z M674.6,220.3
			c1,0,1.7-0.6,1.7-1.5s-0.6-1.5-1.7-1.5H673v3H674.6z"/>
		<path class="st4" d="M682,222.1v4h-2.1v-10.6h4c2.1,0,3.5,1.4,3.5,3.3s-1.4,3.3-3.5,3.3L682,222.1L682,222.1z M683.6,220.3
			c1,0,1.7-0.6,1.7-1.5s-0.6-1.5-1.7-1.5H682v3H683.6z"/>
		<path class="st4" d="M692.1,222H691v4.1h-2.1v-10.6h4.2c2.1,0,3.4,1.4,3.4,3.3c0,1.5-0.9,2.6-2.3,3l2.3,4.3h-2.3L692.1,222z
			 M692.7,220.2c1,0,1.7-0.6,1.7-1.5s-0.6-1.5-1.7-1.5H691v3H692.7z"/>
		<path class="st4" d="M703.1,215.2c2.9,0,5.5,2.1,5.5,5.5s-2.6,5.5-5.5,5.5s-5.5-2.1-5.5-5.5C697.6,217.3,700.2,215.2,703.1,215.2z
			 M703.1,224.3c1.6,0,3.3-1.1,3.3-3.5s-1.7-3.5-3.3-3.5s-3.3,1.1-3.3,3.5C699.7,223.2,701.4,224.3,703.1,224.3z"/>
		<path class="st4" d="M716.7,215.4h2.2L715,226h-2.1l-3.9-10.6h2.3l2.8,7.9L716.7,215.4z"/>
		<path class="st4" d="M725.7,223.6h-4.3l-0.9,2.4h-2.2l4.1-10.6h2.4l4,10.6h-2.2L725.7,223.6z M722,221.8h2.9l-1.5-4L722,221.8z"/>
		<path class="st4" d="M730.2,226.1v-10.6h2.1v8.7h4.7v2h-6.8V226.1z"/>
	</g>
</g>
<g>
	<g>
		<path class="st6" d="M357.9,170.4H243.2c-2.8,0-5-2.2-5-5v-17.3"/>
		<g>
			<polygon class="st7" points="243.2,149.6 238.2,141 233.2,149.6 			"/>
		</g>
	</g>
</g>
<g>
	<g>
		<path class="st6" d="M165.4,120.2H41c-2.8,0-5-2.2-5-5V97.9"/>
		<g>
			<polygon class="st7" points="41.1,99.2 35.9,90.7 31.1,99.4 			"/>
		</g>
	</g>
</g>
<g>
	<g>
		<path class="st6" d="M518.5,170.2h154.2c2.8,0,5,2.2,5,5v17.4"/>
		<g>
			<polygon class="st7" points="672.7,191.1 677.7,199.8 682.7,191.1 			"/>
		</g>
	</g>
</g>
<g>
	<g>
		<path class="st6" d="M591.2,220.6H442.7c-2.8,0-5-2.2-5-5v-17.7"/>
		<g>
			<polygon class="st7" points="442.7,199.3 437.7,190.7 432.7,199.3 			"/>
		</g>
	</g>
</g>
<g>
	<g>
		<path class="st6" d="M758.4,220.6h37.9c2.8,0,5,2.2,5,5v16.9"/>
		<g>
			<polygon class="st7" points="796.3,241 801.3,249.6 806.3,241 			"/>
		</g>
	</g>
</g>
<circle class="st7" cx="36" cy="13.6" r="12.3"/>
<g>
	<g>
		<line class="st6" x1="36" y1="25.9" x2="36" y2="42.4"/>
		<g>
			<polygon class="st7" points="31,41 36,49.6 41,41 			"/>
		</g>
	</g>
</g>
</svg>
